<?xml version="1.0" encoding="utf-8"?>
<!-- Generator: Adobe Illustrator 18.1.1, SVG Export Plug-In . SVG Version: 6.00 Build 0)  -->
<!DOCTYPE svg PUBLIC "-//W3C//DTD SVG 1.1//EN" "http://www.w3.org/Graphics/SVG/1.1/DTD/svg11.dtd">
<svg version="1.1" id="Layer_1" xmlns="http://www.w3.org/2000/svg" xmlns:xlink="http://www.w3.org/1999/xlink" x="0px" y="0px"
	 viewBox="0 0 500 265" enable-background="new 0 0 500 265" xml:space="preserve">
<g>
	<g>
		<g>
			<path fill="#6B491C" d="M1.9,253.5v-19c12.6,7.8,23,11.5,31.9,11.5c14.2,0,23.8-8.8,23.8-24.1v-0.5c0-13.7-4.8-22.8-24.1-48
				C9.1,142.1,2.2,131.1,2.2,112.3v-0.5c0-24.4,17.4-41.3,39.1-41.3c11.5,0,19.8,2.7,28.7,7.8v19c-10.2-6.7-18.8-9.9-27.6-9.9
				c-13.1,0-22.8,9.4-22.8,23.3v0.5c0,12.6,5.1,21.4,24.4,45.5C67.5,185.8,75,200,75,220.6v0.5c0,25.2-17.7,41.8-40.5,41.8
				C23,262.9,12.9,259.4,1.9,253.5z"/>
			<path fill="#6B491C" d="M96.2,73h19.3l31.3,95.1L178.4,73h19.3v187.6h-16.9V112.1l-33.5,98.6h-1.1l-33.5-98.6v148.4H96.2V73z"/>
			<path fill="#6B491C" d="M256.1,72.1h18.8l39.7,188.4h-17.7l-9.9-48.5h-43.4l-9.6,48.5h-17.1L256.1,72.1z M284.3,196.2l-19-94.3
				l-19,94.3H284.3z"/>
			<path fill="#6B491C" d="M333.8,73h26c33,0,54.9,19.6,54.9,56.5v0.8c0,25.7-11.3,43.7-29.5,51.7l33,78.5h-19.6l-30.5-73.4
				c-2.4,0.5-5.1,0.5-7.8,0.5h-9.1v72.9h-17.4V73z M360.1,172.1c22.5,0,37.2-14.2,37.2-41.5v-0.8c0-28.4-15.5-40.7-38-40.7h-8v83.1
				H360.1z"/>
			<path fill="#6B491C" d="M453,89.3h-28.4V73h74.5v16.3h-28.7v171.2H453V89.3z"/>
		</g>
		<g>
			<path fill="#6B491C" d="M485.4,245.1h4.6c1.4,0,2.5,0.4,3.2,1.1c0.6,0.6,0.9,1.4,0.9,2.3v0.1c0,1.7-0.9,2.7-2.2,3.2l2.5,3.7h-2.7
				l-2.2-3.4h-0.1h-1.8v3.4h-2.3V245.1z M490,250.1c1.2,0,1.8-0.6,1.8-1.5v-0.1c0-1-0.7-1.5-1.8-1.5h-2.3v3.1H490z"/>
		</g>
		<path fill="#6B491C" d="M489.4,240.5c-5.6,0-10.1,4.5-10.1,10.1c0,5.6,4.5,10.1,10.1,10.1s10.1-4.5,10.1-10.1
			C499.5,245,495,240.5,489.4,240.5z M489.4,259c-4.7,0-8.5-3.8-8.5-8.5s3.8-8.5,8.5-8.5s8.5,3.8,8.5,8.5S494.1,259,489.4,259z"/>
	</g>
	<g>
		<g>
			<g>
				<g>
					<g>
						<path fill="none" stroke="#6B491C" stroke-width="0.7818" stroke-miterlimit="10" d="M305.4,2.4l-4.7,26.3
							c0,0.1-0.2,0.3-0.3,0.5c-0.2,0.2-0.3,0.4-1.4,0.4c-0.1,0-0.3,0-0.5,0c-0.2,0-0.3-0.1-0.3-0.2l4.5-27h-17.7l-1.4,9.7
							c-0.9-2.3-2.3-3.7-4.1-5.3c-3.4-3.2-8.2-4.9-13.3-4.9c-1.5,0-3.1,0.2-4.6,0.5c-5.8,1.2-11,3.6-15,7.6l1.9-7.6h-31.6l-2.4,7.2
							l-2.6-7.2h-25.9l-2.2,12.8c-1.3-6.5-7.6-12.7-15.5-12.7h-21.8l-2.1,15.4c0,0,16.1,0,18.4,0c1.4,0,3.3-0.1,4.1,2.3
							c1.4,5.4-3.7,8.1-5.3,8.3l2.1-8.9h-18.1l-5,25h18.4h0c1.5,0,7.6-0.4,13.8-3.9c3.3-1.9,5.8-4,7.6-6.7l-1.9,10.6h29.4l6.3-13.7
							h-14.9l0.3-1.3h8.2l2.6-12.1h-8.2l0.1-1.3h17.1l-5.3,28.4h18.1l5.7-28.4h3.9c-1.6,3.2-2.5,6.9-2.6,10.4c0,0,0,0.6,0,0.7
							c0,5.1,2.1,9.7,5.5,12.9c3.4,3.2,8.2,4.9,13.3,4.9c1.5,0,3.1-0.1,4.6-0.4c7.2-1.4,13.5-6.3,17.5-11.9c0,0,0.1,12.3,16.4,12.3
							c18.8,0,20.5-10.4,22.3-19.4l4.5-23.3H305.4z M260.7,28.4c-0.4,0.1-0.8,0.1-1.2,0.1c-1.3,0-2.2-0.4-2.8-1
							c-0.6-0.6-0.9-1.2-1-2.3c-0.1-2.5,2.8-6.1,6.3-6.7l0,0c0.4-0.1,0.8-0.1,1.2-0.1c1.3,0,2.2,0.4,2.8,1c0.6,0.6,0.9,1.2,1,2.4
							c0,0,0,0,0,0c0,0.1,0,0.2,0,0.2C266.9,24.5,264,27.9,260.7,28.4z"/>
						<g>
							<g>
								<path fill="none" stroke="#6B491C" stroke-width="0.7818" stroke-miterlimit="10" d="M344.3,2.4h-20.8l-8.1,42.2h18.5
									l1.2-5.6l1,5.6h18.7l-4-17.6c0.6-0.3,1.3-0.6,2-1c2.5-1.5,5.7-3.9,6.5-8.3c0.1-0.8,0.2-1.6,0.2-2.4
									C359.3,2.2,344.3,2.4,344.3,2.4z M342.4,15.2c-0.2,0.2-0.6,0.5-1,0.7c0,0-0.1,0-0.1,0.1h-3.8l0.2-1.3h4.7
									c0.1,0.1,0.1,0.2,0.1,0.4C342.5,15.1,342.5,15.2,342.4,15.2z"/>
							</g>
						</g>
						<path fill="#FFFFFF" stroke="#231F20" stroke-width="0.606" d="M318.7,26.6"/>
					</g>
					<g>
						<path fill="#6B491C" d="M148,14.4l1.2-9h17.9c7.9,0,14.7,8,13.3,17.2C177.7,40.6,158,41.1,158,41.1h-13.7l3.9-18.7h11.4
							l-2.3,10c0,0,14.5-0.6,13.1-12.5c-0.4-3.3-3.2-5.6-6.2-5.6C161.7,14.4,148,14.4,148,14.4z"/>
						<path fill="#6B491C" d="M281.1,19.7c0,9.8-8.7,19.4-19.4,21.5c-10.7,2.1-19.4-4.8-19.4-14.7c0-9.8,8.7-18.8,19.4-20.9
							c10.7-2.1,19.4,3.6,19.4,13.4V19.7z M261.3,15c-5,1-9,5.4-9,10c0,4.6,4,7.5,9,6.6c5-1,9-5.4,9-10
							C270.3,17,266.3,14.1,261.3,15"/>
						<polygon fill="#6B491C" points="211.9,13.1 209.2,5.4 189,5.4 182.6,41.1 205.8,41.1 209.2,33.8 195.5,33.8 196.7,26.5 
							205.1,26.5 206.6,20 198,20 199.5,13.1 						"/>
						<polygon fill="#6B491C" points="244.2,5.4 242.2,13.1 235.2,13.1 229.5,41.1 218.3,41.1 223.5,13.1 216.9,13.1 219.5,5.4 
													"/>
						<path fill="#6B491C" d="M353,8.3c2.1,2.3,3.2,5,2.6,8.5c-0.9,5.4-9.1,7.8-9.1,7.8l3.7,16.5h-11.5l-2.6-15.2h-2.1l-3.2,15.2
							h-11.5l6.9-35.7H344C344,5.4,350.4,5.5,353,8.3 M335.6,11.7l-1.2,6.8h7.7c0,0,3.3-1.3,3.4-3.5c0.1-2.4-1.9-3.4-1.9-3.4H335.6z
							"/>
						<path fill="#6B491C" d="M314,31.6c1.1-3,5.2-26.2,5.2-26.2h-10.8l-4.5,24.3c0,0-1.2,3.7-5.9,3.3c-3.3-0.2-3.4-3.4-3.4-3.4
							l4.1-24.2H288L283.7,33c-0.2,1.2,1.2,8.6,13.2,8.6C309.1,41.6,312.4,36.2,314,31.6z"/>
					</g>
				</g>
			</g>
		</g>
		<path fill="#6B491C" d="M360,36.7c2.2,0,4,1.8,4,4.1c0,2.3-1.8,4.1-4.1,4.1c-2.2,0-4.1-1.8-4.1-4.1
			C355.9,38.5,357.7,36.7,360,36.7L360,36.7z M360,37.3c-1.8,0-3.3,1.6-3.3,3.5c0,2,1.5,3.5,3.3,3.5c1.8,0,3.3-1.5,3.3-3.5
			C363.3,38.9,361.8,37.3,360,37.3L360,37.3z M359.2,43.2h-0.7v-4.6c0.4-0.1,0.8-0.1,1.3-0.1c0.7,0,1.1,0.2,1.4,0.4
			c0.3,0.2,0.4,0.5,0.4,0.9c0,0.6-0.4,1-0.9,1.1v0c0.4,0.1,0.7,0.4,0.8,1.1c0.1,0.7,0.2,1,0.3,1.1H361c-0.1-0.1-0.2-0.6-0.3-1.2
			c-0.1-0.6-0.4-0.8-1-0.8h-0.5V43.2z M359.2,40.6h0.5c0.6,0,1.1-0.2,1.1-0.8c0-0.4-0.3-0.8-1.1-0.8c-0.2,0-0.4,0-0.5,0V40.6z"/>
	</g>
</g>
</svg>
